<svg width="1em"  height="1em"  fill="currentColor"  aria-hidden="true"  focusable="false"  viewBox="0 0 1024 1024">
    <path d="M249.787181 328.164281A74.553827 74.553827 0 1 0 175.233354 254.884879a73.916615 73.916615 0 0 0 74.553827 73.279402zM509.769757 328.164281A74.553827 74.553827 0 1 0 435.21593 254.884879 74.553827 74.553827 0 0 0 509.769757 328.164281zM769.752334 328.164281A74.553827 74.553827 0 1 0 695.835719 254.884879a73.916615 73.916615 0 0 0 73.916615 73.916614zM249.787181 588.78407a74.553827 74.553827 0 1 0-74.553827-74.553827 73.916615 73.916615 0 0 0 74.553827 74.553827zM509.769757 588.78407a74.553827 74.553827 0 1 0-74.553827-74.553827A74.553827 74.553827 0 0 0 509.769757 588.78407zM769.752334 588.78407a74.553827 74.553827 0 1 0-73.916615-74.553827 74.553827 74.553827 0 0 0 73.916615 74.553827zM249.787181 848.766646a74.553827 74.553827 0 1 0-74.553827-74.553827 73.916615 73.916615 0 0 0 74.553827 74.553827zM509.769757 848.766646a74.553827 74.553827 0 1 0-74.553827-74.553827A74.553827 74.553827 0 0 0 509.769757 848.766646zM769.752334 848.766646a74.553827 74.553827 0 1 0-73.916615-74.553827 74.553827 74.553827 0 0 0 73.916615 74.553827z"
          fill="#555555"
          p-id="29002" >
    </path>
</svg>